PathFileType	4	(X/Y/Z)	C:\Users\Basilio\Documents\Thesis Gigler\squatting_fais\c3dfiles\075\SJ_pre1\markers_experimental.trc
DataRate	CameraRate	NumFrames	NumMarkers	Units	OrigDataRate	OrigDataStartFrame	OrigNumFrames
200.000000	200.000000	4	61	mm	200.000000	1026	1642
Frame#	Time	FHD			LBHD			C7			T10			CLAV			LSHO			LUUPA			LMUPA			LDUPA			LLEP			LMEP			LRAD			LUL			LRFIN			RSHO			RUPA1			RMUPA			RDUPA			RLEP			RMEP			RRAD			RUL			RUFIN			LASI			RASI			USACR			LSACR			RSACR			LTHI1			LTHI2			LTHI3			LTHI4			LLFC			LMFC			LTIB1			LTIB2			LTIB3			LTIB4			LLMAL			LMMAL			LHEE			LMT1			LMT2			LMT5			RTHI			RTHI2			RTHI3			RTHI4			RLFC			RMFC			RTIB1			RTIB2			RTIB3			RTIB4			RLMAL			RMMAL			RHEE			RMT1			RMT2			RMT5			RBHD			
		X1	Y1	Z1	X2	Y2	Z2	X3	Y3	Z3	X4	Y4	Z4	X5	Y5	Z5	X6	Y6	Z6	X7	Y7	Z7	X8	Y8	Z8	X9	Y9	Z9	X10	Y10	Z10	X11	Y11	Z11	X12	Y12	Z12	X13	Y13	Z13	X14	Y14	Z14	X15	Y15	Z15	X16	Y16	Z16	X17	Y17	Z17	X18	Y18	Z18	X19	Y19	Z19	X20	Y20	Z20	X21	Y21	Z21	X22	Y22	Z22	X23	Y23	Z23	X24	Y24	Z24	X25	Y25	Z25	X26	Y26	Z26	X27	Y27	Z27	X28	Y28	Z28	X29	Y29	Z29	X30	Y30	Z30	X31	Y31	Z31	X32	Y32	Z32	X33	Y33	Z33	X34	Y34	Z34	X35	Y35	Z35	X36	Y36	Z36	X37	Y37	Z37	X38	Y38	Z38	X39	Y39	Z39	X40	Y40	Z40	X41	Y41	Z41	X42	Y42	Z42	X43	Y43	Z43	X44	Y44	Z44	X45	Y45	Z45	X46	Y46	Z46	X47	Y47	Z47	X48	Y48	Z48	X49	Y49	Z49	X50	Y50	Z50	X51	Y51	Z51	X52	Y52	Z52	X53	Y53	Z53	X54	Y54	Z54	X55	Y55	Z55	X56	Y56	Z56	X57	Y57	Z57	X58	Y58	Z58	X59	Y59	Z59	X60	Y60	Z60	X61	Y61	Z61	

1027	5.13	-183.3512878417969	1783.15966796875	-900.0796508789065	-308.8505249023438	1645.7294921875	-974.8958129882815	-336.0568847656251	1544.3671875	-913.5678710937502	-378.4081115722657	1220.356079101563	-900.3795166015627	-181.3382568359375	1499.659057617188	-898.317321777344	-198.3794860839844	1543.856079101563	-1045.60791015625	-223.8963165283204	1401.455932617188	-1226.759033203125	-201.0773620605469	1358.599731445313	-1210.248291015625	-225.1662139892579	1340.732421875	-1263.54296875	-235.291000366211	1253.38232421875	-1286.050048828125	-321.3529663085938	1263.9794921875	-1258.032592773438	-288.0906066894532	1073.51171875	-1116.650756835938	-253.2712707519532	1029.0478515625	-1168.061889648438	-249.1831665039063	1040.525268554688	-1070.874389648438	-223.8487243652344	1542.868041992188	-750.1630249023439	-269.4605712890626	1398.783935546875	-581.9826660156251	-246.1800231933594	1354.393798828125	-592.4022827148439	-281.6230468750001	1338.13037109375	-546.0662231445314	-291.8843078613282	1268.1787109375	-523.5235595703126	-372.1242675781251	1256.078125	-549.2446899414064	-295.6101074218751	1060.648803710938	-692.0018920898439	-255.9100189208985	1032.9345703125	-632.9822387695314	-240.6921386718751	1043.2392578125	-734.9943847656251	-239.8719635009766	1021.399353027344	-1026.8466796875	-239.9293670654297	1027.631958007813	-779.140319824219	-385.3838500976564	1118.421508789063	-903.134948730469	-396.6402282714845	1089.069580078125	-931.0233154296877	-394.2098999023439	1087.467041015625	-874.5667724609377	-311.6960144042969	806.2378540039065	-1116.994384765625	-279.6532287597657	731.0852050781251	-1129.84375	-230.0506896972657	737.3841552734376	-1122.706909179688	-301.1809082031251	674.9664916992189	-1121.461303710938	-301.3916625976563	561.7489013671876	-1115.958618164063	-236.295883178711	543.8226928710939	-1016.081298828125	-242.1484527587891	439.9924316406251	-1112.30224609375	-311.3356018066407	400.6301879882814	-1148.464599609375	-267.1284790039063	395.900115966797	-1141.1611328125	-260.2605895996094	313.3808288574219	-1119.797607421875	-339.1236267089844	170.6734924316407	-1128.3291015625	-289.4184875488282	176.6390838623047	-1058.691650390625	-386.2486572265626	156.7494506835938	-1073.56591796875	-197.6914215087891	66.3901824951172	-1082.566162109375	-204.6070861816407	61.72873687744142	-1130.597290039063	-257.1934204101563	52.90148544311525	-1169.608032226563	-319.8201904296876	845.4984130859377	-702.1597900390626	-279.5789794921876	795.5101318359377	-694.7941284179689	-247.5151519775391	802.0842895507815	-700.6819458007814	-301.1980285644532	712.4320678710939	-695.2418212890626	-301.5046081542969	554.0580444335939	-710.5474243164064	-245.8625793457032	533.2267456054689	-819.6504516601565	-241.4208374023438	403.4048156738282	-744.4038085937501	-299.9244689941407	332.1716003417969	-685.6254882812501	-256.7566528320313	325.1572265625001	-707.7037353515626	-259.5100402832032	275.7156677246094	-738.0358276367189	-335.2275390625001	154.2998046875	-705.2326049804689	-288.8636169433594	170.4466247558594	-777.0332641601565	-382.6727600097657	142.1881256103516	-767.2036743164064	-191.3767395019532	64.34841918945314	-746.3548583984376	-200.0769805908204	59.2338218688965	-705.9031982421876	-249.6884002685547	41.88069534301759	-666.3243408203126	-282.3940124511719	1686.011352539063	-819.3906860351565	
1028	5.135	-187.5469665527344	1796.129272460938	-900.0420532226565	-312.8324279785157	1660.011962890625	-974.9636230468752	-339.7994995117188	1556.8193359375	-913.4661254882815	-377.9981689453126	1233.359008789063	-900.0664062500002	-184.9732818603516	1514.40576171875	-898.1877441406252	-202.0062713623047	1558.734497070313	-1045.132446289063	-225.5179595947266	1416.373779296875	-1226.630493164063	-202.1941833496094	1374.272705078125	-1210.197387695313	-225.6185913085938	1355.652221679688	-1263.488159179688	-234.0819244384766	1268.098510742188	-1285.808715820313	-320.8704528808594	1277.219604492188	-1257.950927734375	-284.9474792480469	1087.085815429688	-1116.511108398438	-249.5775604248047	1043.30859375	-1167.984741210938	-245.6293334960938	1053.509399414063	-1070.370849609375	-227.9006805419922	1557.2392578125	-750.3317260742189	-270.5249023437501	1412.719116210938	-582.0272216796876	-246.8490753173829	1368.74951171875	-592.7650146484376	-281.8814086914063	1351.972778320313	-546.3353881835939	-291.1542968750001	1281.892700195313	-523.7509765625001	-371.6534423828126	1268.606323242188	-549.4446411132814	-291.9576416015626	1074.147338867188	-692.1730346679689	-251.8843994140626	1047.182006835938	-632.9910888671876	-237.0265655517579	1057.19580078125	-735.4946899414064	-236.9437561035157	1034.691162109375	-1026.961791992188	-236.3036193847657	1041.566772460938	-779.582946777344	-382.3761901855469	1131.594848632813	-902.866638183594	-393.3208312988282	1102.117309570313	-930.801696777344	-390.6452636718751	1100.514892578125	-874.3629150390627	-313.5789184570313	818.2778320312502	-1114.718505859375	-283.6633911132813	741.8259887695314	-1125.8701171875	-234.7419128417969	746.9105834960939	-1119.072998046875	-307.7787780761719	686.6369018554689	-1116.203735351563	-312.0701293945313	574.1658935546876	-1109.328369140625	-246.4831085205079	555.9232788085939	-1007.868347167969	-248.3235015869141	454.356414794922	-1110.03662109375	-317.1934509277344	413.8802795410157	-1145.567016601563	-272.1213684082032	410.1810913085939	-1139.033569335938	-262.3151550292969	327.2638549804688	-1120.693603515625	-335.7249145507813	181.8665008544922	-1131.969360351563	-284.6385498046876	188.2622680664063	-1062.578491210938	-381.9193420410157	169.3911437988282	-1076.046020507813	-194.6682739257813	75.61537170410158	-1085.767578125	-203.4078369140626	69.29212951660158	-1133.509399414063	-255.1100158691407	60.20137786865236	-1171.673095703125	-319.0855712890626	858.2850341796877	-703.7195434570314	-281.0546569824219	806.7036743164065	-697.8820800781251	-248.9837188720704	812.1352539062502	-703.6876220703126	-305.8527526855469	724.5923461914064	-698.8850708007814	-313.1230163574219	565.9089355468751	-716.6329956054689	-256.4226684570313	545.2018432617189	-826.5946044921877	-245.7497711181641	416.6531982421876	-745.0527343750001	-303.6614990234376	344.9606018066407	-685.8754272460939	-259.7441406250001	338.9230346679688	-706.4421386718751	-259.5899658203126	288.4273071289063	-735.2104492187501	-330.4226989746094	164.94921875	-700.8612060546876	-283.2071533203126	181.4868621826172	-772.4361572265627	-377.0862426757813	155.2594451904297	-764.0007324218751	-188.2613372802735	70.9522171020508	-743.6780395507814	-197.7918853759766	64.36018371582033	-704.1876220703126	-247.6943054199219	47.49843215942384	-665.3057250976564	-286.8700866699219	1699.561889648438	-819.1499633789065	
1029	5.14	-190.5225067138672	1807.928955078125	-899.2921142578127	-317.1840209960938	1672.827026367188	-975.016784667969	-343.6124267578126	1568.71533203125	-913.157897949219	-377.6335144042969	1246.027587890625	-899.867370605469	-188.3529815673828	1528.492919921875	-898.0362548828127	-206.1771697998047	1572.945922851563	-1044.88427734375	-227.1359405517579	1430.96337890625	-1226.470581054688	-203.625473022461	1389.368530273438	-1210.370971679688	-226.3089752197266	1370.346069335938	-1263.444213867188	-233.7501831054688	1282.49267578125	-1285.97900390625	-320.2172546386719	1290.549682617188	-1257.900634765625	-281.3351440429688	1101.001586914063	-1116.228881835938	-245.9158172607422	1057.256469726563	-1168.15234375	-243.0776062011719	1066.8056640625	-1070.148681640625	-231.960433959961	1571.348876953125	-750.6937255859376	-271.9825134277344	1426.316162109375	-582.3664550781251	-247.5157928466797	1382.781372070313	-593.1043090820314	-282.3250122070313	1365.34716796875	-546.5891113281251	-290.7125854492188	1295.230346679688	-524.0366821289064	-371.1100158691407	1280.801147460938	-549.5072021484376	-288.5511474609376	1087.26025390625	-692.4328002929689	-247.7580566406251	1061.064819335938	-633.0731201171876	-233.2875976562501	1070.959106445313	-735.9581909179689	-233.3614654541016	1047.425659179688	-1027.073852539063	-233.2671508789063	1055.151489257813	-780.4385986328127	-379.8851623535157	1144.435302734375	-902.699157714844	-390.5749816894532	1115.044067382813	-930.684265136719	-387.7648010253907	1113.307373046875	-874.2939453125002	-315.5168762207032	830.015563964844	-1112.5078125	-288.1529846191407	752.2837524414064	-1122.278442382813	-239.2701568603516	756.0897216796876	-1115.028198242188	-314.8058776855469	698.4422607421876	-1111.23486328125	-321.6730041503907	586.4223022460939	-1103.901733398438	-255.4491119384766	568.6136474609376	-999.9566040039065	-253.5666961669922	468.6267395019532	-1107.73388671875	-322.5379333496094	427.4447021484376	-1142.474609375	-277.8368530273438	424.7815551757814	-1137.36279296875	-264.7814941406251	341.6014099121094	-1121.112548828125	-334.5728149414063	194.249740600586	-1133.5927734375	-281.9846191406251	200.8001403808594	-1065.2919921875	-379.5020751953126	182.6508331298828	-1077.189575195313	-192.8612823486329	86.80154418945314	-1090.004028320313	-202.0083007812501	79.59102630615236	-1137.254150390625	-256.4441833496094	70.22309875488283	-1173.04833984375	-318.4980468750001	870.4816894531252	-704.6060180664064	-282.2746276855469	817.6636962890627	-700.1849975585939	-250.1150665283204	822.128601074219	-706.3432006835939	-310.3903808593751	736.0596313476564	-702.5227050781251	-324.1286315917969	578.1593627929689	-722.3142089843751	-267.5065002441407	557.1821899414064	-833.5500488281252	-249.6273498535157	430.6227416992189	-745.6138305664064	-307.4757080078126	358.3007202148438	-686.4954833984376	-263.0186157226563	353.6273803710938	-705.7250366210939	-259.8687133789063	302.2168884277344	-733.0093383789064	-327.0881042480469	177.070053100586	-697.0438842773439	-278.7302856445313	193.7927703857422	-768.4487304687502	-372.5964050292969	168.0471343994141	-761.4470825195314	-185.2523956298828	80.61832427978517	-740.4657592773439	-194.8876495361329	73.54339599609376	-701.0190429687501	-245.3969421386719	55.15367507934572	-663.6683349609376	-291.2704467773438	1712.2451171875	-819.186462402344	
1030	5.145	-194.1000671386719	1819.6181640625	-898.9902343750002	-320.9293518066407	1685.2841796875	-975.0415039062502	-346.9606323242188	1580.249877929688	-912.9754028320315	-377.3682556152344	1258.416259765625	-899.4722290039065	-191.9626617431641	1542.074096679688	-898.174499511719	-210.4656219482422	1586.734252929688	-1044.794921875	-228.6983184814454	1445.075927734375	-1226.341430664063	-203.9919433593751	1403.783081054688	-1210.2529296875	-226.8685302734376	1384.797241210938	-1263.458984375	-232.6865997314454	1296.632690429688	-1286.154907226563	-319.7015075683594	1303.46337890625	-1258.184814453125	-278.4112854003907	1114.3134765625	-1116.156127929688	-242.2041778564454	1071.135009765625	-1167.831787109375	-240.370346069336	1079.185913085938	-1069.10546875	-235.6092834472657	1584.631958007813	-750.6209106445314	-273.0349426269532	1439.529541015625	-582.4324951171876	-248.1775970458985	1396.331787109375	-593.2573852539064	-282.6562194824219	1378.474243164063	-546.7384643554689	-290.2197570800782	1308.315307617188	-524.0822753906251	-370.9011535644532	1292.697387695313	-549.2937622070314	-284.7851257324219	1100.24755859375	-692.6452636718751	-243.7325134277344	1074.7626953125	-633.7605590820314	-229.6427154541016	1084.787109375	-737.2777709960939	-231.0359344482422	1059.8486328125	-1026.585571289063	-230.5001068115235	1068.564208984375	-781.4046630859377	-377.7192077636719	1157.327514648438	-902.520446777344	-388.4025268554689	1127.822875976563	-930.6028442382815	-385.3649902343751	1125.912109375	-874.208190917969	-317.2726745605469	841.302673339844	-1110.57861328125	-292.7034912109376	762.5819091796876	-1118.975463867188	-243.1303863525391	764.8091430664064	-1110.893676757813	-320.6783752441407	709.6110839843751	-1106.966064453125	-329.7161560058594	599.2866210937501	-1099.661987304688	-261.8025207519532	581.3482666015626	-994.0345458984377	-258.2540588378907	482.5819091796876	-1105.867919921875	-326.9529418945313	440.9528198242189	-1139.62646484375	-281.5670776367188	438.6700744628907	-1134.863159179688	-267.5087585449219	355.5328979492188	-1120.2138671875	-336.0965881347657	207.0759887695313	-1132.776000976563	-282.1559448242188	212.9143981933594	-1066.006225585938	-379.2514038085938	195.2940979003907	-1075.67578125	-193.5402526855469	99.0888595581055	-1095.076049804688	-203.7228088378907	92.4549026489258	-1142.661376953125	-259.5250854492188	82.80467987060548	-1175.682250976563	-318.5527954101563	881.8635864257815	-705.6908569335939	-283.6927185058594	828.2832641601565	-702.1547851562501	-251.4110412597657	831.9656982421877	-708.6265258789064	-314.4441528320313	747.4212036132814	-706.2063598632814	-332.5695190429688	590.6701660156251	-726.8055419921876	-273.5352478027344	569.0477294921876	-838.1240234375002	-253.3063507080079	444.6188964843751	-746.5814208984376	-311.1528015136719	372.0068664550782	-687.7948608398439	-266.1510925292969	368.0466308593751	-705.7174072265626	-261.1129150390626	316.4414672851563	-731.4078979492189	-326.4205017089844	189.6753234863282	-696.0646362304689	-276.8302307128907	206.4626159667969	-766.4185791015626	-371.0528869628907	180.1844482421875	-760.3379516601564	-182.9969024658203	92.87575531005861	-736.0029907226564	-192.2446594238282	85.66085052490236	-696.1869506835939	-244.9481811523438	66.00320434570314	-661.5753784179689	-295.3571472167969	1724.287963867188	-819.4248046875002	
